# MagicaVoxel @ Ephtracy

# group
o 

# material
mtllib landmass2.mtl
usemtl palette

# normals
vn -1 0 0
vn 1 0 0
vn 0 0 1
vn 0 0 -1
vn 0 -1 0
vn 0 1 0

# texcoords
vt 0.443359 0.5
vt 0.541016 0.5

# verts
v 0.1 2 -0.3
v 0.1 2 -0.9
v 0.1 2 -1.1
v 0.1 2 -3.3
v 0.1 2.1 -0.3
v 0.1 2.1 -0.9
v 0.1 2.1 -1.1
v 0.1 2.1 -3.3
v 0.2 2 -0.2
v 0.2 2 -0.3
v 0.2 2 -1
v 0.2 2 -1.1
v 0.2 2 -3.3
v 0.2 2 -3.4
v 0.2 2.1 -0.2
v 0.2 2.1 -0.3
v 0.2 2.1 -0.4
v 0.2 2.1 -0.8
v 0.2 2.1 -1
v 0.2 2.1 -1.1
v 0.2 2.1 -2.4
v 0.2 2.1 -3.3
v 0.2 2.1 -3.4
v 0.2 2.2 -0.3
v 0.2 2.2 -0.4
v 0.2 2.2 -0.8
v 0.2 2.2 -1.1
v 0.2 2.2 -2.4
v 0.2 2.2 -3.4
v 0.3 2 -3.4
v 0.3 2 -3.6
v 0.3 2.1 -3.4
v 0.3 2.1 -3.5
v 0.3 2.1 -3.6
v 0.3 2.2 -3.4
v 0.3 2.2 -3.5
v 0.4 2 -3.6
v 0.4 2 -3.7
v 0.4 2.1 -3.5
v 0.4 2.1 -3.6
v 0.4 2.1 -3.7
v 0.4 2.2 -3.5
v 0.4 2.2 -3.6
v 0.5 2 -3.7
v 0.5 2 -3.8
v 0.5 2.1 -3.6
v 0.5 2.1 -3.7
v 0.5 2.1 -3.8
v 0.5 2.2 -3.6
v 0.5 2.2 -3.7
v 0.6 2 -0.9
v 0.6 2 -1
v 0.6 2.1 -0.9
v 0.6 2.1 -1
v 0.6 2.1 -1.1
v 0.6 2.2 -1
v 0.6 2.2 -1.1
v 0.7 2 -0.7
v 0.7 2 -0.9
v 0.7 2.1 -0.7
v 0.7 2.1 -0.8
v 0.7 2.1 -0.9
v 0.7 2.1 -1
v 0.7 2.2 -0.8
v 0.7 2.2 -1
v 0.8 2 -0.6
v 0.8 2 -0.7
v 0.8 2.1 -0.6
v 0.8 2.1 -0.7
v 0.8 2.1 -0.8
v 0.8 2.2 -0.7
v 0.8 2.2 -0.8
v 0.9 2 -0.2
v 0.9 2 -0.6
v 0.9 2.1 -0.2
v 0.9 2.1 -0.6
v 0.9 2.1 -0.7
v 0.9 2.2 -0.6
v 0.9 2.2 -0.7
v 1 2.1 -0.3
v 1 2.1 -0.6
v 1 2.2 -0.3
v 1 2.2 -0.6
v 0.4 2 -0.8
v 0.4 2 -0.9
v 0.4 2.1 -0.8
v 0.4 2.1 -0.9
v 0.5 2 -0.6
v 0.5 2 -0.8
v 0.5 2.1 -0.6
v 0.5 2.1 -0.7
v 0.5 2.2 -0.6
v 0.5 2.2 -0.7
v 0.5 2.2 -0.8
v 0.6 2 -0.5
v 0.6 2 -0.6
v 0.6 2.1 -0.5
v 0.6 2.2 -0.5
v 0.6 2.2 -0.6
v 0.7 2 -0.2
v 0.7 2 -0.5
v 0.7 2.1 -0.2
v 0.7 2.1 -0.3
v 0.7 2.1 -0.5
v 0.7 2.2 -0.3
v 0.7 2.2 -0.5
v 2.4 2.1 -3.6
v 2.4 2.1 -3.7
v 2.4 2.2 -3.6
v 2.4 2.2 -3.7
v 2.5 2 -3.7
v 2.5 2 -3.8
v 2.5 2.1 -3.7
v 2.5 2.1 -3.8
v 2.9 2 -0.2
v 2.9 2 -0.3
v 2.9 2.1 -0.2
v 2.9 2.1 -0.3
v 2.9 2.1 -0.5
v 2.9 2.2 -0.3
v 2.9 2.2 -0.5
v 3 2 -0.3
v 3 2 -0.4
v 3 2.1 -0.3
v 3 2.1 -0.4
v 3.2 2.1 -0.5
v 3.2 2.1 -0.6
v 3.2 2.2 -0.5
v 3.2 2.2 -0.6
v 3.3 2 -0.4
v 3.3 2 -0.5
v 3.3 2.1 -0.4
v 3.3 2.1 -0.5
v 3.3 2.1 -3.5
v 3.3 2.1 -3.6
v 3.3 2.2 -3.5
v 3.3 2.2 -3.6
v 3.4 2 -3.6
v 3.4 2 -3.7
v 3.4 2.1 -3.4
v 3.4 2.1 -3.5
v 3.4 2.1 -3.6
v 3.4 2.1 -3.7
v 3.4 2.2 -3.4
v 3.4 2.2 -3.5
v 3.5 2 -0.5
v 3.5 2 -0.6
v 3.5 2 -3.5
v 3.5 2 -3.6
v 3.5 2.1 -0.5
v 3.5 2.1 -0.6
v 3.5 2.1 -0.9
v 3.5 2.1 -3.3
v 3.5 2.1 -3.4
v 3.5 2.1 -3.5
v 3.5 2.1 -3.6
v 3.5 2.2 -0.6
v 3.5 2.2 -0.9
v 3.5 2.2 -3.3
v 3.5 2.2 -3.4
v 3.6 2 -0.6
v 3.6 2 -0.8
v 3.6 2 -3.4
v 3.6 2 -3.5
v 3.6 2.1 -0.6
v 3.6 2.1 -0.8
v 3.6 2.1 -3.4
v 3.6 2.1 -3.5
v 3.7 2.1 -3.2
v 3.7 2.1 -3.3
v 3.7 2.2 -3.2
v 3.7 2.2 -3.3
v 3.8 2 -0.8
v 3.8 2 -0.9
v 3.8 2 -3.3
v 3.8 2 -3.4
v 3.8 2.1 -0.8
v 3.8 2.1 -0.9
v 3.8 2.1 -1.6
v 3.8 2.1 -2.5
v 3.8 2.1 -3.2
v 3.8 2.1 -3.3
v 3.8 2.1 -3.4
v 3.8 2.2 -0.9
v 3.8 2.2 -1.6
v 3.8 2.2 -2.5
v 3.8 2.2 -3.2
v 3.9 2 -0.9
v 3.9 2 -3.3
v 3.9 2.1 -0.9
v 3.9 2.1 -3.3
v 0.2 2 -0.2
v 0.2 2.1 -0.2
v 0.7 2 -0.2
v 0.7 2.1 -0.2
v 0.9 2 -0.2
v 0.9 2.1 -0.2
v 2.9 2 -0.2
v 2.9 2.1 -0.2
v 0.1 2 -0.3
v 0.1 2.1 -0.3
v 0.2 2 -0.3
v 0.2 2.1 -0.3
v 0.2 2.2 -0.3
v 0.6 2.1 -0.3
v 0.6 2.2 -0.3
v 0.7 2.1 -0.3
v 0.7 2.2 -0.3
v 1 2.1 -0.3
v 1 2.2 -0.3
v 2.9 2 -0.3
v 2.9 2.1 -0.3
v 2.9 2.2 -0.3
v 3 2 -0.3
v 3 2.1 -0.3
v 3 2 -0.4
v 3 2.1 -0.4
v 3.3 2 -0.4
v 3.3 2.1 -0.4
v 2.9 2.1 -0.5
v 2.9 2.2 -0.5
v 3.2 2.1 -0.5
v 3.2 2.2 -0.5
v 3.3 2 -0.5
v 3.3 2.1 -0.5
v 3.5 2 -0.5
v 3.5 2.1 -0.5
v 0.8 2 -0.6
v 0.8 2.1 -0.6
v 0.9 2 -0.6
v 0.9 2.1 -0.6
v 0.9 2.2 -0.6
v 1 2.1 -0.6
v 1 2.2 -0.6
v 3.2 2.1 -0.6
v 3.2 2.2 -0.6
v 3.4 2.1 -0.6
v 3.4 2.2 -0.6
v 3.5 2 -0.6
v 3.5 2.1 -0.6
v 3.5 2.2 -0.6
v 3.6 2 -0.6
v 3.6 2.1 -0.6
v 0.7 2 -0.7
v 0.7 2.1 -0.7
v 0.8 2 -0.7
v 0.8 2.1 -0.7
v 0.8 2.2 -0.7
v 0.9 2.1 -0.7
v 0.9 2.2 -0.7
v 0.7 2.1 -0.8
v 0.7 2.2 -0.8
v 0.8 2.1 -0.8
v 0.8 2.2 -0.8
v 3.6 2 -0.8
v 3.6 2.1 -0.8
v 3.8 2 -0.8
v 3.8 2.1 -0.8
v 0.6 2 -0.9
v 0.6 2.1 -0.9
v 0.7 2 -0.9
v 0.7 2.1 -0.9
v 3.5 2.1 -0.9
v 3.5 2.2 -0.9
v 3.8 2 -0.9
v 3.8 2.1 -0.9
v 3.8 2.2 -0.9
v 3.9 2 -0.9
v 3.9 2.1 -0.9
v 0.2 2 -1
v 0.2 2.1 -1
v 0.6 2 -1
v 0.6 2.1 -1
v 0.6 2.2 -1
v 0.7 2.1 -1
v 0.7 2.2 -1
v 0.1 2 -1.1
v 0.1 2.1 -1.1
v 0.2 2 -1.1
v 0.2 2.1 -1.1
v 0.2 2.2 -1.1
v 0.6 2.1 -1.1
v 0.6 2.2 -1.1
v 0.6 2 -0.5
v 0.6 2.1 -0.5
v 0.6 2.2 -0.5
v 0.7 2 -0.5
v 0.7 2.1 -0.5
v 0.7 2.2 -0.5
v 0.5 2 -0.6
v 0.5 2.1 -0.6
v 0.5 2.2 -0.6
v 0.6 2 -0.6
v 0.6 2.2 -0.6
v 0.2 2.1 -0.8
v 0.2 2.2 -0.8
v 0.4 2 -0.8
v 0.4 2.1 -0.8
v 0.4 2.2 -0.8
v 0.5 2 -0.8
v 0.5 2.2 -0.8
v 0.1 2 -0.9
v 0.1 2.1 -0.9
v 0.4 2 -0.9
v 0.4 2.1 -0.9
v 3.7 2.1 -3.2
v 3.7 2.2 -3.2
v 3.8 2.1 -3.2
v 3.8 2.2 -3.2
v 0.1 2 -3.3
v 0.1 2.1 -3.3
v 0.2 2 -3.3
v 0.2 2.1 -3.3
v 3.5 2.1 -3.3
v 3.5 2.2 -3.3
v 3.7 2.1 -3.3
v 3.7 2.2 -3.3
v 3.8 2 -3.3
v 3.8 2.1 -3.3
v 3.9 2 -3.3
v 3.9 2.1 -3.3
v 0.2 2 -3.4
v 0.2 2.1 -3.4
v 0.2 2.2 -3.4
v 0.3 2 -3.4
v 0.3 2.1 -3.4
v 0.3 2.2 -3.4
v 3.4 2.1 -3.4
v 3.4 2.2 -3.4
v 3.5 2.1 -3.4
v 3.5 2.2 -3.4
v 3.6 2 -3.4
v 3.6 2.1 -3.4
v 3.8 2 -3.4
v 3.8 2.1 -3.4
v 0.3 2.1 -3.5
v 0.3 2.2 -3.5
v 0.4 2.1 -3.5
v 0.4 2.2 -3.5
v 3.3 2.1 -3.5
v 3.3 2.2 -3.5
v 3.4 2.1 -3.5
v 3.4 2.2 -3.5
v 3.5 2 -3.5
v 3.5 2.1 -3.5
v 3.6 2 -3.5
v 3.6 2.1 -3.5
v 0.3 2 -3.6
v 0.3 2.1 -3.6
v 0.4 2 -3.6
v 0.4 2.1 -3.6
v 0.4 2.2 -3.6
v 0.5 2.1 -3.6
v 0.5 2.2 -3.6
v 2.4 2.1 -3.6
v 2.4 2.2 -3.6
v 2.8 2.1 -3.6
v 2.8 2.2 -3.6
v 3.3 2.1 -3.6
v 3.3 2.2 -3.6
v 3.4 2 -3.6
v 3.4 2.1 -3.6
v 3.5 2 -3.6
v 3.5 2.1 -3.6
v 0.4 2 -3.7
v 0.4 2.1 -3.7
v 0.5 2 -3.7
v 0.5 2.1 -3.7
v 0.5 2.2 -3.7
v 0.7 2.1 -3.7
v 0.7 2.2 -3.7
v 1.9 2.1 -3.7
v 1.9 2.2 -3.7
v 2.4 2.1 -3.7
v 2.4 2.2 -3.7
v 2.5 2 -3.7
v 2.5 2.1 -3.7
v 3.4 2 -3.7
v 3.4 2.1 -3.7
v 0.5 2 -3.8
v 0.5 2.1 -3.8
v 2.5 2 -3.8
v 2.5 2.1 -3.8
v 0.2 2 -0.2
v 0.7 2 -0.2
v 0.9 2 -0.2
v 2.9 2 -0.2
v 0.1 2 -0.3
v 0.2 2 -0.3
v 2.9 2 -0.3
v 3 2 -0.3
v 3 2 -0.4
v 3.3 2 -0.4
v 0.6 2 -0.5
v 0.7 2 -0.5
v 3.3 2 -0.5
v 3.5 2 -0.5
v 0.5 2 -0.6
v 0.6 2 -0.6
v 0.8 2 -0.6
v 0.9 2 -0.6
v 3.5 2 -0.6
v 3.6 2 -0.6
v 0.7 2 -0.7
v 0.8 2 -0.7
v 0.4 2 -0.8
v 0.5 2 -0.8
v 3.6 2 -0.8
v 3.8 2 -0.8
v 0.1 2 -0.9
v 0.4 2 -0.9
v 0.6 2 -0.9
v 0.7 2 -0.9
v 3.8 2 -0.9
v 3.9 2 -0.9
v 0.2 2 -1
v 0.6 2 -1
v 0.1 2 -1.1
v 0.2 2 -1.1
v 0.1 2 -3.3
v 0.2 2 -3.3
v 3.8 2 -3.3
v 3.9 2 -3.3
v 0.2 2 -3.4
v 0.3 2 -3.4
v 3.6 2 -3.4
v 3.8 2 -3.4
v 3.5 2 -3.5
v 3.6 2 -3.5
v 0.3 2 -3.6
v 0.4 2 -3.6
v 3.4 2 -3.6
v 3.5 2 -3.6
v 0.4 2 -3.7
v 0.5 2 -3.7
v 2.5 2 -3.7
v 3.4 2 -3.7
v 0.5 2 -3.8
v 2.5 2 -3.8
v 0.2 2.1 -0.2
v 0.7 2.1 -0.2
v 0.9 2.1 -0.2
v 2.9 2.1 -0.2
v 0.1 2.1 -0.3
v 0.2 2.1 -0.3
v 0.6 2.1 -0.3
v 0.7 2.1 -0.3
v 1 2.1 -0.3
v 2.9 2.1 -0.3
v 3 2.1 -0.3
v 0.2 2.1 -0.4
v 3 2.1 -0.4
v 3.3 2.1 -0.4
v 2.9 2.1 -0.5
v 3.2 2.1 -0.5
v 3.3 2.1 -0.5
v 3.5 2.1 -0.5
v 0.8 2.1 -0.6
v 0.9 2.1 -0.6
v 1 2.1 -0.6
v 3.2 2.1 -0.6
v 3.4 2.1 -0.6
v 3.5 2.1 -0.6
v 3.6 2.1 -0.6
v 0.7 2.1 -0.7
v 0.8 2.1 -0.7
v 0.9 2.1 -0.7
v 0.2 2.1 -0.8
v 0.4 2.1 -0.8
v 0.7 2.1 -0.8
v 0.8 2.1 -0.8
v 3.6 2.1 -0.8
v 3.8 2.1 -0.8
v 0.1 2.1 -0.9
v 0.4 2.1 -0.9
v 0.6 2.1 -0.9
v 0.7 2.1 -0.9
v 3.5 2.1 -0.9
v 3.8 2.1 -0.9
v 3.9 2.1 -0.9
v 0.2 2.1 -1
v 0.6 2.1 -1
v 0.7 2.1 -1
v 0.1 2.1 -1.1
v 0.2 2.1 -1.1
v 0.6 2.1 -1.1
v 3.8 2.1 -1.6
v 0.2 2.1 -2.4
v 3.8 2.1 -2.5
v 3.7 2.1 -3.2
v 3.8 2.1 -3.2
v 0.1 2.1 -3.3
v 0.2 2.1 -3.3
v 3.5 2.1 -3.3
v 3.7 2.1 -3.3
v 3.8 2.1 -3.3
v 3.9 2.1 -3.3
v 3.4 2.1 -3.4
v 3.5 2.1 -3.4
v 3.6 2.1 -3.4
v 3.8 2.1 -3.4
v 0.3 2.1 -3.5
v 0.4 2.1 -3.5
v 3.3 2.1 -3.5
v 3.4 2.1 -3.5
v 3.5 2.1 -3.5
v 3.6 2.1 -3.5
v 0.3 2.1 -3.6
v 0.4 2.1 -3.6
v 0.5 2.1 -3.6
v 2.4 2.1 -3.6
v 2.8 2.1 -3.6
v 3.3 2.1 -3.6
v 3.4 2.1 -3.6
v 3.5 2.1 -3.6
v 0.4 2.1 -3.7
v 0.5 2.1 -3.7
v 0.7 2.1 -3.7
v 1.9 2.1 -3.7
v 2.4 2.1 -3.7
v 2.5 2.1 -3.7
v 3.4 2.1 -3.7
v 0.5 2.1 -3.8
v 2.5 2.1 -3.8
v 0.2 2.2 -0.3
v 0.6 2.2 -0.3
v 0.7 2.2 -0.3
v 1 2.2 -0.3
v 2.9 2.2 -0.3
v 0.2 2.2 -0.4
v 0.4 2.2 -0.4
v 1.7 2.2 -0.4
v 2.1 2.2 -0.4
v 0.4 2.2 -0.5
v 0.5 2.2 -0.5
v 0.6 2.2 -0.5
v 0.7 2.2 -0.5
v 2.1 2.2 -0.5
v 2.2 2.2 -0.5
v 2.9 2.2 -0.5
v 3.2 2.2 -0.5
v 0.5 2.2 -0.6
v 0.6 2.2 -0.6
v 0.9 2.2 -0.6
v 1 2.2 -0.6
v 1.2 2.2 -0.6
v 1.7 2.2 -0.6
v 2.4 2.2 -0.6
v 3.2 2.2 -0.6
v 3.4 2.2 -0.6
v 3.5 2.2 -0.6
v 0.4 2.2 -0.7
v 0.5 2.2 -0.7
v 0.8 2.2 -0.7
v 0.9 2.2 -0.7
v 0.2 2.2 -0.8
v 0.4 2.2 -0.8
v 0.5 2.2 -0.8
v 0.7 2.2 -0.8
v 0.8 2.2 -0.8
v 1 2.2 -0.8
v 1.2 2.2 -0.8
v 2.1 2.2 -0.8
v 2.2 2.2 -0.8
v 0.9 2.2 -0.9
v 1 2.2 -0.9
v 3.5 2.2 -0.9
v 3.8 2.2 -0.9
v 0.6 2.2 -1
v 0.7 2.2 -1
v 3.4 2.2 -1
v 3.6 2.2 -1
v 0.2 2.2 -1.1
v 0.6 2.2 -1.1
v 0.7 2.2 -1.1
v 0.9 2.2 -1.1
v 0.6 2.2 -1.2
v 0.7 2.2 -1.2
v 0.4 2.2 -1.3
v 0.6 2.2 -1.3
v 2.1 2.2 -1.4
v 2.2 2.2 -1.4
v 0.4 2.2 -1.6
v 0.5 2.2 -1.6
v 3.6 2.2 -1.6
v 3.8 2.2 -1.6
v 0.5 2.2 -1.8
v 0.7 2.2 -1.8
v 2.2 2.2 -2
v 2.3 2.2 -2
v 0.7 2.2 -2.1
v 0.9 2.2 -2.1
v 2.4 2.2 -2.2
v 2.8 2.2 -2.2
v 2.3 2.2 -2.3
v 2.7 2.2 -2.3
v 0.2 2.2 -2.4
v 0.7 2.2 -2.4
v 2.8 2.2 -2.4
v 3.1 2.2 -2.4
v 3.1 2.2 -2.5
v 3.8 2.2 -2.5
v 2.8 2.2 -2.8
v 3.3 2.2 -2.8
v 0.7 2.2 -2.9
v 0.9 2.2 -2.9
v 3.3 2.2 -2.9
v 3.5 2.2 -2.9
v 3.5 2.2 -3.1
v 3.7 2.2 -3.1
v 2.3 2.2 -3.2
v 2.7 2.2 -3.2
v 3.7 2.2 -3.2
v 3.8 2.2 -3.2
v 3.5 2.2 -3.3
v 3.7 2.2 -3.3
v 0.2 2.2 -3.4
v 0.3 2.2 -3.4
v 1.9 2.2 -3.4
v 2.3 2.2 -3.4
v 3.3 2.2 -3.4
v 3.4 2.2 -3.4
v 3.5 2.2 -3.4
v 0.3 2.2 -3.5
v 0.4 2.2 -3.5
v 0.7 2.2 -3.5
v 3.3 2.2 -3.5
v 3.4 2.2 -3.5
v 0.4 2.2 -3.6
v 0.5 2.2 -3.6
v 2.4 2.2 -3.6
v 2.8 2.2 -3.6
v 3.3 2.2 -3.6
v 0.5 2.2 -3.7
v 0.7 2.2 -3.7
v 1.9 2.2 -3.7
v 2.4 2.2 -3.7

# faces
f 5/1/1 2/1/1 1/1/1
f 6/1/1 2/1/1 5/1/1
f 7/1/1 4/1/1 3/1/1
f 8/1/1 4/1/1 7/1/1
f 15/1/1 10/1/1 9/1/1
f 16/1/1 10/1/1 15/1/1
f 19/1/1 12/1/1 11/1/1
f 20/1/1 12/1/1 19/1/1
f 22/1/1 14/1/1 13/1/1
f 23/1/1 14/1/1 22/1/1
f 24/1/1 17/1/1 16/1/1
f 25/2/1 18/2/1 17/2/1
f 25/1/1 17/1/1 24/1/1
f 26/2/1 18/2/1 25/2/1
f 27/1/1 21/1/1 20/1/1
f 28/2/1 23/2/1 22/2/1
f 28/1/1 21/1/1 27/1/1
f 28/2/1 22/2/1 21/2/1
f 29/2/1 23/2/1 28/2/1
f 32/1/1 31/1/1 30/1/1
f 33/1/1 31/1/1 32/1/1
f 34/1/1 31/1/1 33/1/1
f 35/2/1 33/2/1 32/2/1
f 36/2/1 33/2/1 35/2/1
f 40/1/1 38/1/1 37/1/1
f 41/1/1 38/1/1 40/1/1
f 42/1/1 40/1/1 39/1/1
f 43/1/1 40/1/1 42/1/1
f 47/1/1 45/1/1 44/1/1
f 48/1/1 45/1/1 47/1/1
f 49/1/1 47/1/1 46/1/1
f 50/1/1 47/1/1 49/1/1
f 53/1/1 52/1/1 51/1/1
f 54/1/1 52/1/1 53/1/1
f 56/1/1 55/1/1 54/1/1
f 57/1/1 55/1/1 56/1/1
f 60/1/1 59/1/1 58/1/1
f 61/1/1 59/1/1 60/1/1
f 62/1/1 59/1/1 61/1/1
f 64/1/1 63/1/1 62/1/1
f 64/1/1 62/1/1 61/1/1
f 65/1/1 63/1/1 64/1/1
f 68/1/1 67/1/1 66/1/1
f 69/1/1 67/1/1 68/1/1
f 71/1/1 70/1/1 69/1/1
f 72/1/1 70/1/1 71/1/1
f 75/1/1 74/1/1 73/1/1
f 76/1/1 74/1/1 75/1/1
f 78/1/1 77/1/1 76/1/1
f 79/1/1 77/1/1 78/1/1
f 82/1/1 81/1/1 80/1/1
f 83/1/1 81/1/1 82/1/1
f 84/1/2 85/1/2 86/1/2
f 86/1/2 85/1/2 87/1/2
f 88/1/2 89/1/2 90/1/2
f 90/1/2 89/1/2 91/1/2
f 90/2/2 91/2/2 92/2/2
f 91/1/2 89/1/2 93/1/2
f 92/2/2 91/2/2 93/2/2
f 93/1/2 89/1/2 94/1/2
f 95/1/2 96/1/2 97/1/2
f 97/1/2 96/1/2 98/1/2
f 98/1/2 96/1/2 99/1/2
f 100/1/2 101/1/2 102/1/2
f 102/1/2 101/1/2 103/1/2
f 103/1/2 101/1/2 104/1/2
f 103/2/2 104/2/2 105/2/2
f 105/2/2 104/2/2 106/2/2
f 107/1/2 108/1/2 109/1/2
f 109/1/2 108/1/2 110/1/2
f 111/1/2 112/1/2 113/1/2
f 113/1/2 112/1/2 114/1/2
f 115/1/2 116/1/2 117/1/2
f 117/1/2 116/1/2 118/1/2
f 118/1/2 119/1/2 120/1/2
f 120/1/2 119/1/2 121/1/2
f 122/1/2 123/1/2 124/1/2
f 124/1/2 123/1/2 125/1/2
f 126/1/2 127/1/2 128/1/2
f 128/1/2 127/1/2 129/1/2
f 130/1/2 131/1/2 132/1/2
f 132/1/2 131/1/2 133/1/2
f 134/2/2 135/2/2 136/2/2
f 136/2/2 135/2/2 137/2/2
f 138/1/2 139/1/2 142/1/2
f 142/1/2 139/1/2 143/1/2
f 140/1/2 141/1/2 144/1/2
f 144/1/2 141/1/2 145/1/2
f 146/1/2 147/1/2 150/1/2
f 150/1/2 147/1/2 151/1/2
f 148/1/2 149/1/2 155/1/2
f 155/1/2 149/1/2 156/1/2
f 151/1/2 152/1/2 157/1/2
f 157/1/2 152/1/2 158/1/2
f 153/2/2 154/2/2 159/2/2
f 159/2/2 154/2/2 160/2/2
f 161/1/2 162/1/2 165/1/2
f 165/1/2 162/1/2 166/1/2
f 163/1/2 164/1/2 167/1/2
f 167/1/2 164/1/2 168/1/2
f 169/2/2 170/2/2 171/2/2
f 171/2/2 170/2/2 172/2/2
f 173/1/2 174/1/2 177/1/2
f 177/1/2 174/1/2 178/1/2
f 175/1/2 176/1/2 182/1/2
f 182/1/2 176/1/2 183/1/2
f 178/1/2 179/1/2 184/1/2
f 179/2/2 180/2/2 185/2/2
f 184/1/2 179/1/2 185/1/2
f 180/1/2 181/1/2 186/1/2
f 185/2/2 180/2/2 186/2/2
f 186/1/2 181/1/2 187/1/2
f 188/1/2 189/1/2 190/1/2
f 190/1/2 189/1/2 191/1/2
f 194/1/3 193/1/3 192/1/3
f 195/1/3 193/1/3 194/1/3
f 198/1/3 197/1/3 196/1/3
f 199/1/3 197/1/3 198/1/3
f 202/1/3 201/1/3 200/1/3
f 203/1/3 201/1/3 202/1/3
f 205/1/3 204/1/3 203/1/3
f 206/1/3 204/1/3 205/1/3
f 207/2/3 206/2/3 205/2/3
f 208/2/3 206/2/3 207/2/3
f 212/1/3 210/1/3 209/1/3
f 213/1/3 210/1/3 212/1/3
f 214/1/3 212/1/3 211/1/3
f 215/1/3 212/1/3 214/1/3
f 218/1/3 217/1/3 216/1/3
f 219/1/3 217/1/3 218/1/3
f 222/1/3 221/1/3 220/1/3
f 223/1/3 221/1/3 222/1/3
f 226/1/3 225/1/3 224/1/3
f 227/1/3 225/1/3 226/1/3
f 230/1/3 229/1/3 228/1/3
f 231/1/3 229/1/3 230/1/3
f 233/1/3 232/1/3 231/1/3
f 234/1/3 232/1/3 233/1/3
f 237/2/3 236/2/3 235/2/3
f 238/2/3 236/2/3 237/2/3
f 240/1/3 238/1/3 237/1/3
f 241/1/3 238/1/3 240/1/3
f 242/1/3 240/1/3 239/1/3
f 243/1/3 240/1/3 242/1/3
f 246/1/3 245/1/3 244/1/3
f 247/1/3 245/1/3 246/1/3
f 249/1/3 248/1/3 247/1/3
f 250/1/3 248/1/3 249/1/3
f 253/1/3 252/1/3 251/1/3
f 254/1/3 252/1/3 253/1/3
f 257/1/3 256/1/3 255/1/3
f 258/1/3 256/1/3 257/1/3
f 261/1/3 260/1/3 259/1/3
f 262/1/3 260/1/3 261/1/3
f 266/1/3 264/1/3 263/1/3
f 267/1/3 264/1/3 266/1/3
f 268/1/3 266/1/3 265/1/3
f 269/1/3 266/1/3 268/1/3
f 272/1/3 271/1/3 270/1/3
f 273/1/3 271/1/3 272/1/3
f 275/1/3 274/1/3 273/1/3
f 276/1/3 274/1/3 275/1/3
f 279/1/3 278/1/3 277/1/3
f 280/1/3 278/1/3 279/1/3
f 282/1/3 281/1/3 280/1/3
f 283/1/3 281/1/3 282/1/3
f 284/1/4 285/1/4 287/1/4
f 285/2/4 286/2/4 288/2/4
f 287/1/4 285/1/4 288/1/4
f 288/2/4 286/2/4 289/2/4
f 290/1/4 291/1/4 293/1/4
f 291/1/4 292/1/4 293/1/4
f 293/1/4 292/1/4 294/1/4
f 295/2/4 296/2/4 298/2/4
f 298/2/4 296/2/4 299/2/4
f 297/1/4 298/1/4 300/1/4
f 298/1/4 299/1/4 300/1/4
f 300/1/4 299/1/4 301/1/4
f 302/1/4 303/1/4 304/1/4
f 304/1/4 303/1/4 305/1/4
f 306/1/4 307/1/4 308/1/4
f 308/1/4 307/1/4 309/1/4
f 310/1/4 311/1/4 312/1/4
f 312/1/4 311/1/4 313/1/4
f 314/2/4 315/2/4 316/2/4
f 316/2/4 315/2/4 317/2/4
f 318/1/4 319/1/4 320/1/4
f 320/1/4 319/1/4 321/1/4
f 322/1/4 323/1/4 325/1/4
f 323/2/4 324/2/4 326/2/4
f 325/1/4 323/1/4 326/1/4
f 326/2/4 324/2/4 327/2/4
f 328/2/4 329/2/4 330/2/4
f 330/2/4 329/2/4 331/2/4
f 332/1/4 333/1/4 334/1/4
f 334/1/4 333/1/4 335/1/4
f 336/2/4 337/2/4 338/2/4
f 338/2/4 337/2/4 339/2/4
f 340/1/4 341/1/4 342/1/4
f 342/1/4 341/1/4 343/1/4
f 344/1/4 345/1/4 346/1/4
f 346/1/4 345/1/4 347/1/4
f 348/1/4 349/1/4 350/1/4
f 350/1/4 349/1/4 351/1/4
f 351/1/4 352/1/4 353/1/4
f 353/1/4 352/1/4 354/1/4
f 355/1/4 356/1/4 357/1/4
f 357/1/4 356/1/4 358/1/4
f 357/2/4 358/2/4 359/2/4
f 359/2/4 358/2/4 360/2/4
f 361/1/4 362/1/4 363/1/4
f 363/1/4 362/1/4 364/1/4
f 365/1/4 366/1/4 367/1/4
f 367/1/4 366/1/4 368/1/4
f 368/1/4 369/1/4 370/1/4
f 370/1/4 369/1/4 371/1/4
f 370/2/4 371/2/4 372/2/4
f 372/2/4 371/2/4 373/2/4
f 372/1/4 373/1/4 374/1/4
f 374/1/4 373/1/4 375/1/4
f 376/1/4 377/1/4 378/1/4
f 378/1/4 377/1/4 379/1/4
f 380/1/4 381/1/4 382/1/4
f 382/1/4 381/1/4 383/1/4
f 389/1/5 385/1/5 384/1/5
f 390/1/5 387/1/5 386/1/5
f 392/1/5 391/1/5 390/1/5
f 394/1/5 389/1/5 388/1/5
f 394/1/5 385/1/5 389/1/5
f 395/1/5 385/1/5 394/1/5
f 396/1/5 393/1/5 392/1/5
f 398/1/5 394/1/5 388/1/5
f 399/1/5 394/1/5 398/1/5
f 401/1/5 397/1/5 396/1/5
f 401/1/5 392/1/5 390/1/5
f 401/1/5 390/1/5 386/1/5
f 401/1/5 396/1/5 392/1/5
f 402/1/5 397/1/5 401/1/5
f 405/1/5 403/1/5 402/1/5
f 405/1/5 402/1/5 401/1/5
f 405/1/5 401/1/5 400/1/5
f 406/1/5 398/1/5 388/1/5
f 407/1/5 398/1/5 406/1/5
f 408/1/5 405/1/5 404/1/5
f 408/1/5 403/1/5 405/1/5
f 410/1/5 406/1/5 388/1/5
f 411/1/5 406/1/5 410/1/5
f 413/1/5 409/1/5 408/1/5
f 413/1/5 408/1/5 404/1/5
f 414/1/5 409/1/5 413/1/5
f 417/1/5 415/1/5 414/1/5
f 417/1/5 414/1/5 413/1/5
f 417/1/5 413/1/5 412/1/5
f 419/1/5 417/1/5 416/1/5
f 420/1/5 419/1/5 418/1/5
f 421/1/5 417/1/5 419/1/5
f 421/1/5 419/1/5 420/1/5
f 422/1/5 415/1/5 417/1/5
f 422/1/5 417/1/5 421/1/5
f 423/1/5 415/1/5 422/1/5
f 424/1/5 422/1/5 421/1/5
f 425/1/5 422/1/5 424/1/5
f 426/1/5 422/1/5 425/1/5
f 427/1/5 422/1/5 426/1/5
f 428/1/5 426/1/5 425/1/5
f 429/1/5 426/1/5 428/1/5
f 430/1/5 428/1/5 425/1/5
f 431/1/5 428/1/5 430/1/5
f 432/1/5 428/1/5 431/1/5
f 433/1/5 428/1/5 432/1/5
f 434/1/5 432/1/5 431/1/5
f 435/1/5 432/1/5 434/1/5
f 436/1/5 432/1/5 435/1/5
f 437/1/5 432/1/5 436/1/5
f 438/1/5 436/1/5 435/1/5
f 439/1/5 436/1/5 438/1/5
f 440/1/6 441/1/6 445/1/6
f 445/1/6 441/1/6 446/1/6
f 446/1/6 441/1/6 447/1/6
f 442/1/6 443/1/6 448/1/6
f 448/1/6 443/1/6 449/1/6
f 444/1/6 445/1/6 451/1/6
f 449/1/6 450/1/6 452/1/6
f 449/1/6 452/1/6 454/1/6
f 452/1/6 453/1/6 454/1/6
f 454/1/6 453/1/6 455/1/6
f 455/1/6 453/1/6 456/1/6
f 442/1/6 448/1/6 459/1/6
f 459/1/6 448/1/6 460/1/6
f 455/1/6 456/1/6 461/1/6
f 456/1/6 457/1/6 461/1/6
f 461/1/6 457/1/6 462/1/6
f 462/1/6 457/1/6 463/1/6
f 458/1/6 459/1/6 466/1/6
f 466/1/6 459/1/6 467/1/6
f 444/1/6 451/1/6 468/1/6
f 465/1/6 466/1/6 470/1/6
f 470/1/6 466/1/6 471/1/6
f 463/1/6 464/1/6 472/1/6
f 468/1/6 469/1/6 474/1/6
f 444/1/6 468/1/6 474/1/6
f 474/1/6 469/1/6 475/1/6
f 472/1/6 473/1/6 478/1/6
f 463/1/6 472/1/6 478/1/6
f 478/1/6 473/1/6 479/1/6
f 476/1/6 477/1/6 482/1/6
f 482/1/6 477/1/6 483/1/6
f 481/1/6 482/1/6 485/1/6
f 485/1/6 482/1/6 486/1/6
f 479/1/6 480/1/6 487/1/6
f 484/1/6 485/1/6 488/1/6
f 487/1/6 480/1/6 489/1/6
f 489/1/6 480/1/6 491/1/6
f 484/1/6 488/1/6 492/1/6
f 492/1/6 488/1/6 493/1/6
f 490/1/6 491/1/6 495/1/6
f 491/1/6 480/1/6 496/1/6
f 495/1/6 491/1/6 496/1/6
f 496/1/6 480/1/6 497/1/6
f 494/1/6 495/1/6 499/1/6
f 495/1/6 496/1/6 499/1/6
f 499/1/6 496/1/6 500/1/6
f 500/1/6 496/1/6 501/1/6
f 498/1/6 499/1/6 505/1/6
f 499/1/6 500/1/6 505/1/6
f 505/1/6 500/1/6 506/1/6
f 506/1/6 500/1/6 507/1/6
f 502/1/6 503/1/6 508/1/6
f 508/1/6 503/1/6 509/1/6
f 504/1/6 505/1/6 513/1/6
f 505/1/6 506/1/6 513/1/6
f 513/1/6 506/1/6 514/1/6
f 514/1/6 506/1/6 515/1/6
f 509/1/6 510/1/6 516/1/6
f 516/1/6 510/1/6 517/1/6
f 511/1/6 512/1/6 520/1/6
f 513/1/6 514/1/6 520/1/6
f 512/1/6 513/1/6 520/1/6
f 520/1/6 514/1/6 521/1/6
f 521/1/6 514/1/6 522/1/6
f 518/1/6 519/1/6 523/1/6
f 517/1/6 518/1/6 523/1/6
f 520/1/6 521/1/6 523/1/6
f 519/1/6 520/1/6 523/1/6
f 523/1/6 521/1/6 524/1/6
f 525/1/6 526/1/6 530/1/6
f 530/1/6 526/1/6 531/1/6
f 528/1/6 529/1/6 532/1/6
f 532/1/6 529/1/6 533/1/6
f 531/1/6 526/1/6 534/1/6
f 530/2/6 531/2/6 534/2/6
f 534/1/6 526/1/6 535/1/6
f 526/2/6 527/2/6 536/2/6
f 535/1/6 526/1/6 536/1/6
f 536/2/6 527/2/6 537/2/6
f 533/1/6 529/1/6 538/1/6
f 532/2/6 533/2/6 538/2/6
f 538/1/6 529/1/6 539/1/6
f 539/1/6 529/1/6 540/1/6
f 534/2/6 535/2/6 542/2/6
f 535/1/6 536/1/6 542/1/6
f 542/1/6 536/1/6 543/1/6
f 528/1/6 532/1/6 545/1/6
f 545/1/6 532/1/6 546/1/6
f 538/2/6 539/2/6 547/2/6
f 546/1/6 532/1/6 547/1/6
f 532/2/6 538/2/6 547/2/6
f 540/1/6 541/1/6 548/1/6
f 539/1/6 540/1/6 548/1/6
f 548/1/6 541/1/6 549/1/6
f 530/2/6 534/2/6 552/2/6
f 534/2/6 542/2/6 552/2/6
f 552/2/6 542/2/6 553/2/6
f 545/1/6 546/1/6 555/1/6
f 544/1/6 545/1/6 555/1/6
f 530/2/6 552/2/6 556/2/6
f 552/1/6 553/1/6 557/1/6
f 556/2/6 552/2/6 557/2/6
f 557/1/6 553/1/6 558/1/6
f 554/1/6 555/1/6 560/1/6
f 555/1/6 546/1/6 561/1/6
f 560/1/6 555/1/6 561/1/6
f 546/2/6 547/2/6 562/2/6
f 561/1/6 546/1/6 562/1/6
f 547/2/6 539/2/6 563/2/6
f 562/2/6 547/2/6 563/2/6
f 539/1/6 548/1/6 564/1/6
f 563/2/6 539/2/6 564/2/6
f 560/1/6 561/1/6 565/1/6
f 559/1/6 560/1/6 565/1/6
f 561/2/6 562/2/6 566/2/6
f 565/1/6 561/1/6 566/1/6
f 562/2/6 563/2/6 566/2/6
f 550/1/6 551/1/6 567/1/6
f 559/1/6 565/1/6 570/1/6
f 567/1/6 568/1/6 571/1/6
f 549/2/6 550/2/6 571/2/6
f 548/2/6 549/2/6 571/2/6
f 550/1/6 567/1/6 571/1/6
f 571/1/6 568/1/6 572/1/6
f 569/1/6 570/1/6 574/1/6
f 570/1/6 565/1/6 575/1/6
f 574/1/6 570/1/6 575/1/6
f 565/2/6 566/2/6 576/2/6
f 575/1/6 565/1/6 576/1/6
f 573/1/6 574/1/6 577/1/6
f 574/1/6 575/1/6 577/1/6
f 575/2/6 576/2/6 578/2/6
f 577/1/6 575/1/6 578/1/6
f 573/1/6 577/1/6 579/1/6
f 577/2/6 578/2/6 580/2/6
f 579/1/6 577/1/6 580/1/6
f 566/2/6 563/2/6 581/2/6
f 580/2/6 578/2/6 581/2/6
f 579/2/6 580/2/6 581/2/6
f 576/2/6 566/2/6 581/2/6
f 563/1/6 564/1/6 581/1/6
f 578/2/6 576/2/6 581/2/6
f 564/1/6 548/1/6 582/1/6
f 581/1/6 564/1/6 582/1/6
f 579/2/6 581/2/6 583/2/6
f 573/1/6 579/1/6 583/1/6
f 581/2/6 582/2/6 583/2/6
f 583/2/6 582/2/6 584/2/6
f 572/1/6 568/1/6 585/1/6
f 571/2/6 572/2/6 585/2/6
f 585/1/6 568/1/6 586/1/6
f 584/2/6 582/2/6 587/2/6
f 583/1/6 584/1/6 587/1/6
f 587/2/6 582/2/6 588/2/6
f 582/1/6 548/1/6 589/1/6
f 588/2/6 582/2/6 589/2/6
f 589/1/6 548/1/6 590/1/6
f 587/1/6 588/1/6 591/1/6
f 588/2/6 589/2/6 591/2/6
f 589/2/6 590/2/6 591/2/6
f 591/2/6 590/2/6 592/2/6
f 590/1/6 548/1/6 593/1/6
f 548/2/6 571/2/6 593/2/6
f 585/2/6 586/2/6 593/2/6
f 571/2/6 585/2/6 593/2/6
f 593/2/6 586/2/6 594/2/6
f 592/2/6 590/2/6 595/2/6
f 590/1/6 593/1/6 595/1/6
f 593/1/6 594/1/6 595/1/6
f 595/1/6 594/1/6 596/1/6
f 591/1/6 592/1/6 597/1/6
f 587/1/6 591/1/6 597/1/6
f 573/1/6 583/1/6 597/1/6
f 583/1/6 587/1/6 597/1/6
f 597/1/6 592/1/6 598/1/6
f 594/2/6 586/2/6 599/2/6
f 596/1/6 594/1/6 599/1/6
f 599/2/6 586/2/6 600/2/6
f 599/1/6 600/1/6 601/1/6
f 600/2/6 586/2/6 601/2/6
f 601/2/6 586/2/6 602/2/6
f 596/1/6 599/1/6 603/1/6
f 599/1/6 601/1/6 603/1/6
f 601/1/6 602/1/6 603/1/6
f 603/1/6 602/1/6 604/1/6
f 598/1/6 592/1/6 605/1/6
f 597/2/6 598/2/6 605/2/6
f 595/2/6 596/2/6 606/2/6
f 605/1/6 592/1/6 606/1/6
f 592/2/6 595/2/6 606/2/6
f 604/1/6 602/1/6 607/1/6
f 603/2/6 604/2/6 607/2/6
f 607/1/6 602/1/6 608/1/6
f 607/2/6 608/2/6 609/2/6
f 608/1/6 602/1/6 609/1/6
f 609/1/6 602/1/6 610/1/6
f 606/2/6 596/2/6 611/2/6
f 605/2/6 606/2/6 611/2/6
f 596/1/6 603/1/6 612/1/6
f 611/2/6 596/2/6 612/2/6
f 610/1/6 602/1/6 613/1/6
f 609/2/6 610/2/6 613/2/6
f 613/1/6 602/1/6 614/1/6
f 607/2/6 609/2/6 615/2/6
f 609/2/6 613/2/6 615/2/6
f 615/2/6 613/2/6 616/2/6
f 597/2/6 605/2/6 617/2/6
f 605/2/6 611/2/6 617/2/6
f 617/2/6 611/2/6 618/2/6
f 618/2/6 611/2/6 619/2/6
f 611/1/6 612/1/6 620/1/6
f 619/2/6 611/2/6 620/2/6
f 607/2/6 615/2/6 621/2/6
f 603/2/6 607/2/6 621/2/6
f 621/2/6 615/2/6 622/2/6
f 622/2/6 615/2/6 623/2/6
f 618/2/6 619/2/6 624/2/6
f 624/2/6 619/2/6 625/2/6
f 625/2/6 619/2/6 626/2/6
f 621/1/6 622/1/6 627/1/6
f 603/2/6 621/2/6 627/2/6
f 627/1/6 622/1/6 628/1/6
f 625/1/6 626/1/6 629/1/6
f 629/1/6 626/1/6 630/1/6
f 620/1/6 612/1/6 631/1/6
f 619/1/6 620/1/6 631/1/6
f 612/1/6 603/1/6 632/1/6
f 631/1/6 612/1/6 632/1/6
f 603/2/6 627/2/6 632/2/6
f 632/2/6 627/2/6 633/2/6
f 630/1/6 626/1/6 634/1/6
f 626/2/6 619/2/6 635/2/6
f 634/1/6 626/1/6 635/1/6
f 619/1/6 631/1/6 636/1/6
f 635/2/6 619/2/6 636/2/6
f 636/1/6 631/1/6 637/1/6
